<?xml version="1.0" encoding="UTF-8"?>
<svg id="Layer_1" data-name="Layer 1" xmlns="http://www.w3.org/2000/svg" viewBox="0 0 1843.2 779.67">
  <path d="M1256,85.07l9.6,1.19c7.65,1.23,18.88,12.97,18.75,20.63-.22,13.37-23.3,34.82-32.9,43.91-39.3,37.19-83.51,68.55-125.74,102.18-1.84,1.46-12.37,9.68-12.69,10.87-.3,1.13,2.64,3.62,3.54,4.47,3.01,2.86,6.85,5.97,10.1,8.61,2.19,1.78,12.89,10.45,14.78,10.43,2.53-.03,12.3-4.09,15.33-5.26,17.4-6.71,43.43-20,61.56-21.46,1.91-.15,10.7-.71,8.65,3.35-.55,1.09-6.72,4.01-8.24,4.73-19.38,9.11-42.15,14.67-60.65,25.72-3.23,1.93-5.12,2.28-1.92,5.29,4.05,3.81,9.21,7.14,13.45,11.02,13.87,12.67,38.02,36.65,25.44,56.62-13.44,21.35-58.85,40.97-82.31,49.64-32.3,11.95-80.89,26.11-115.19,23.49-9.41-.72-13.06-4.5-18.95-11.28-7.01-8.07-11-13.62-6.82-24.54,7.95-20.77,35.54-37.77,53.59-49.57,16.33-10.67,33.43-21,50.32-30.77,18.31-10.59,37.23-20.11,55.29-31.09l.17-1.12-26.57-22.88c-56.51,38.49-111.15,79.72-168.46,117.06-17.45,11.37-38.05,25.45-57.04,33.65-5.26,2.27-13.23,5.79-18.72,3.2-4.5-2.13-15.96-15.89-16.59-20.83-2.25-17.5,22.55-58.21,32.39-73.55,7.62-11.88,16.57-23.16,23.92-35.1.32-.52,1.98-3.05,1.72-3.32-1.04.08-1.99,1.1-2.83,1.73-13.64,10.19-26.53,22.77-39.66,33.76-39.87,33.37-83.82,69.34-129.01,95.07-19.1,10.87-55.57,29.06-77.36,21.03-10.41-3.84-28.64-27.17-32.4-37.66-1.57-4.39-2.08-8.77-3.35-13.2v-11.51c1.89-10.07,3.86-19.7,7.32-29.38,9.6-26.82,27.31-53.91,44.12-76.78,47-63.93,111.6-122.5,184.04-156.16,21.4-9.94,68.08-27.75,87.03-7.01,16.73,18.32,4.08,35.42-9.57,50.37-18.64,20.41-51.23,49.07-75.22,62.49-4.32,2.42-12.58,7.12-17.18,3.93-3.65-2.52-10.3-9.97-6.69-14.36,3.79-4.61,15.14-12.16,20.42-16.05,24.23-17.84,61.64-40.79,79.61-64.34,4.33-5.68,10.97-16.09-.76-17.45-28.51-3.3-78.54,27.41-101.8,43.49-45.7,31.61-87.22,71.23-122.51,114.05-26.87,32.6-72.63,94.93-69.62,138.64.58,8.45,2.68,10.1,10.88,11.19,43.75,5.85,104.16-32.89,139.03-57.11,47.77-33.19,96.74-73.91,139.52-113.35,41.39-38.16,76.26-82.61,117.33-121.14,3.62-3.4,13.86-13.44,18.31-13.88.79-.08,1.37-.06,2.13.19,1.11.35,6.2,5.97,7.16,7.23,4.06,5.33,3.31,7.95-.08,13.33-8.16,12.98-25.47,28.68-36.15,40.62-45.82,51.18-92.03,104.14-132.61,159.59-12.54,17.14-30.31,40.64-38.41,59.94-3.92,9.33-2.13,8.8,6.29,5.81,19.05-6.77,41.03-21.07,58.39-31.82,57.52-35.61,112.64-75.06,168.98-112.46-6.25-10.04-13.94-18.57-17.4-30.32-9.95-33.8,20.17-65.98,43.31-86.48,30.86-27.33,82.17-53.88,123.63-56.82l1.16-.5h8.16ZM1274.24,99.94c-13.82-.13-26.64,2.4-39.48,7.32-44.45,17.03-110.45,61.95-131.31,105.72-4.41,9.24-8.02,26.85-3.92,36.4,2.87,6.67,7.17,2.17,11.4-.62,23.66-15.67,49.13-36.41,71.39-54.32,26.39-21.23,59.41-47.79,80.65-73.85,4.7-5.77,10.7-13.09,11.27-20.64ZM1142.13,302.95c-4.28.81-17.17,8.37-21.8,10.85-15.53,8.3-31.17,17.55-46.19,26.75-26.79,16.41-73.39,44.96-88.12,72.62-1.12,2.11-4.28,7.98-2.89,10.1.56.85,7.24,1.46,8.66,1.45,31.94-.03,80.75-16.84,110.6-29.07,19.95-8.17,65.81-28.93,76.41-47.39,4.8-8.36,5.38-13.02-1.5-20.25-6.25-6.57-21.48-18.32-29.34-22.97-2-1.18-3.36-2.57-5.84-2.09Z"/>
  <g>
    <path d="M973.61,438.38l19.9.5c35.67.9,71.98.69,107.52,3.82,8.58.75,38.47,3.84,44.16,9.11.48.45.88.68.72,1.44-61.44,1.93-123.18.32-184.76,1.21-8.86,9.95-16.5,21-24.4,31.74-30.09,40.95-60.1,83.33-84.64,127.91-3.03,5.5-6.56,11.59-9.12,17.27-1.19,2.65-2.84,5.57-2.79,8.48,23.24-17.85,45.55-37.08,67.19-56.84,10.02-9.14,20.66-18.76,30-28.54,15.71-16.46,28.04-35.77,43.66-52.3,2.12-2.25,11.14-11.65,13.52-11.86s12.06,7.54,10.16,11.02c-9.39,17.95-22.32,34.06-32.75,51.25-.52.85-3.56,5.74-3.16,6.2,15.32-11.14,29.47-23.93,44.68-35.21,3.64-2.7,9.85-8.34,14.48-7.37,3.99.83,10.83,8.96,10.93,13.1.06,2.24-2.96,7.6-4.1,9.82-8.66,16.97-19.16,32.76-26.73,50.51-.83,1.96-5.04,11.39-4.17,12.73,2.4,1.01,5.59-.02,8.09-.66,10.47-2.67,20.86-8.27,30.59-12.84,6.06-18.21,16.28-34.64,29.16-48.81,7.44-8.19,28.12-28.56,39.72-26.75,2.95.46,10.92,6.93,11.99,9.61.59,1.47.53,5.18.36,6.83-2.06,20.36-40.86,43.43-55.42,56.38-3.77,3.35-8.91,9.08-8.41,14.38.72.72,7.09-2.8,8.3-3.46,21.28-11.58,44.88-32.55,62.5-49.3,10.28-9.77,24.35-22.84,32.85-33.84,4.49-5.81,3.2-8.02,5.69-13.98,3.15-7.55,10.91-16.01,17.14-21.25,5.43-4.57,8.92-8.89,15.12-2.18,4.9,5.3.25,8.88-3.38,13.43-5.22,6.54-18.01,18.76-19.14,26.92s6.04,10.05,7.98,16.4c2.19,7.18-4.5,16.65-8.4,22.52-7.64,11.5-17.18,21.72-24.1,33.71.34.28,2.64-1.05,3.2-1.35,8.35-4.5,16.49-9.81,24.59-14.75,18.23-11.12,38.62-22.95,55.86-35.31,7.71-5.52,9.51-8.54,15.44-15.27,9.67-10.97,33.59-29.59,47.3-16.08,4,3.94,4.19,6.54.21,10.32-10.88,10.3-32.03,18.65-33.76,35.81-.7,6.91.3,12.84,5.43,17.78,45.89-10.67,92.88-17.18,139.75-22.33,43.76-4.81,86.96-6.75,130.97-5.34,17.34.55,44.36.4,57.12,14.38,1.37,1.51,5.29,8.13,2.33,9.09-2.19.72-4.49-3.93-6.19-5.24-9.98-7.68-50.59-7.43-63.81-7.18-58.84,1.12-120.4,8.21-178.41,18.36-19.81,3.47-41.21,7.38-60.49,12.94-1.52.44-7.58,1.85-7.99,3.06-.57,1.73,2.6,9.23,2.83,12.37,1.25,17.33-16.74,24.29-30.73,27.84-11.72,2.98-40.66,7.29-51.62,3.61-5.21-1.75-15.19-12.53-18.93-17.06-1.34-1.62-2.91-2.85-2.2-5.05.56-1.75,6.99-7.2,8.75-8.53,19.46-14.66,46.69-20.03,69.05-28.85l-14.51-22.5c-.99-.25-4.85,2.24-6.05,2.92-22.55,12.59-45.76,29.05-67.39,43.45-9.1,6.06-19.21,14.27-28.49,19.5-6.45,3.63-9.11,3.41-14.85-1.4-7.98-6.69-11.63-11.92-8.04-22.44,8.05-23.59,28.43-39.32,43.81-57.43,1.82-2.14,8.47-9.28,5.88-11.88-2.66-1.75-6.26,1.94-8.3,3.71-11.77,10.24-22.82,23.51-34.05,34.56-12.88,12.68-26.32,25.51-40.34,36.91-5.36,4.36-21.02,17.05-27.39,17.24s-14.04-12.31-19.14-15.3c-8.21,4.97-17.06,9.26-26.27,12.12-3.42,1.06-7.8,2.87-11.09,1.21-4.39-2.2-14.66-11.95-16.03-16.6-2.48-8.42,3.55-25.96,6.57-34.41.93-2.6,3.73-7.76,3.86-10.06.04-.65.05-.94-.72-.71-1.62.48-4.92,3.01-6.45,4.11-13.4,9.61-28.14,22.36-40.36,33.53-13.41,12.25-23.54,24.7-35.74,37.67-4.46,4.74-4.15,5.67-9.37,1.2-1.24-1.07-8.71-8.61-8.57-9.51l20.09-34.15c.1-.32-.46-.35-.71-.23-2.08.96-11.54,10.19-13.94,12.46-17.58,16.63-39.66,42-59.78,54.42-7.05,4.35-9.94,4.42-16.03-1.64-6.06-6.02-5.4-8.65-3.47-16.41,5.47-21.98,18.86-50.24,29.05-70.74,4.35-8.75,9.54-17.12,13.52-26.06-23.88,23.16-46.38,47.89-70.54,70.76-3.65,3.46-14.47,14.15-18.29,15.77-5.14,2.18-9.54-2.32-12.68-5.94-5.09-5.86-5.28-8.15-3.85-15.85,4.31-23.16,20.85-42.42,31.84-62.2,1.46-2.62,5.39-9.29,3.49-11.94-1.57-1.59-5.64,2.76-7,4.11-7.59,7.56-14.8,17.73-22.06,25.92-9.33,10.53-19.01,21.6-28.8,31.66-3.66,3.76-13.02,13.83-17.71,14.96-3.89.93-11.7-7.32-13.64-10.49-2.67-4.36-2.26-6.36-1.29-11.19,1.24-6.17,4.62-12.03,4.81-18.22-10.67,8.92-20.19,19.18-30.23,28.79-11.85,11.34-28.23,29.06-41.18,37.99-4.02,2.77-4.78,3.87-8.82.2-3.13-2.84-8.37-8.77-8.81-13.02-.99-9.54,11.77-31.02,17.08-39.54,12.27-19.7,45.19-62.49,67.13-69.61,21.97-7.13,35.85,14.4,39.37,33.18-2.68,6.48-5.02,13.11-7.7,19.59-1.98,4.81-4.67,9.35-6.34,14.29-.45,1.32-1.43,3.12-.85,4.43,11.53-9.79,22.43-20.48,32.89-31.4,4.99-5.21,24.05-24.83,25.21-30.45.54-2.6-.02-5.28.26-7.89.56-5.07,4.21-12.25,6.95-16.56,2.83-4.45,10.48-14.31,16.5-12.25,1.93.66,6.74,5.89,6.76,8.12.04,4.55-12.39,20.16-15.39,24.94-1.43,2.29-4.07,5.57-2.9,8.21,2.94,6.64,11.22,9.21,11.58,18.65.54,14.15-21.77,44.31-29.38,57.5-.88,1.53-2.04,3.38-2.72,4.96-.19.44-1.04,1.22-.32,1.59,11.29-8.89,21.76-18.87,32.17-28.77,35.28-33.53,74.17-71.25,103.87-109.64,1.25-1.61,5.82-7.21,6.25-8.62.28-.89-.16-.64-.7-.71-3.93-.53-9.85.13-13.92.49-20.07,1.73-39.95,5.98-59.98,8.15-1.04-.19-9.65-9.01-11.07-10.55-1.06-1.15-6.7-7.09-5.97-8.14,9.37-3.22,19.63-3.93,29.5-4.82,21.62-1.94,44.05-2.86,65.73-3.86,4.22-.2,8.65.65,12.72-.72,14.02-16.66,27.06-34.26,42.01-50.11,4.58-4.85,10.66-11.31,15.86-15.33,1.83-1.42,5.4-4.2,7.67-4.36,4.26-.3,12.48,5.44,10.43,10.46-11.69,16.19-24.43,31.68-36.02,47.94-1.93,2.71-5.51,7.17-6.84,9.95-.28.58-.62.98-.45,1.71ZM730.74,525.7c-1.72-1.2-9.21,4.53-10.77,5.76-5.82,4.6-11.9,10.67-17.06,16.04-13.77,14.31-26.45,29.99-38.38,45.82.4.36,2.17-1.1,2.63-1.45,3.87-2.93,8.1-6.99,11.78-10.3,14.27-12.81,40.32-35.17,50.1-50.66.97-1.53,2.46-3.33,1.71-5.22ZM1079.2,565.02c11.79-8.19,24.81-18.43,31.92-33.17,1.18-2.12,3.84-6.13,1.9-8.17-1.63-.32-15.27,14.52-17.27,16.79-4.33,4.9-9.41,10.82-13.1,16.17-.66.95-4.08,5.57-3.44,6.39ZM1221.25,614.91c.8.59,17.34-2.57,19.68-3.11,7.58-1.74,24.25-7.06,28.71-13.52,3.77-5.44,1.62-5.52-3.65-4.12-10.63,2.82-30.8,11.23-40.27,16.83-1.74,1.03-3.82,1.85-4.48,3.92Z"/>
    <path d="M508.79,551.59c19.95-32.86,41.36-64.8,63.68-96.09,15.63-21.9,31.42-43.84,49.34-63.92.43-.19,4.81,3.05,5.51,3.64,8.1,6.9,6.32,9.46,1.41,17.69-15.26,25.59-33.27,50.55-48.87,76.35-9.61,15.89-22.58,35.41-29.97,52.08-.35.78-1.26,2.24-.78,3.05,45.6-12.07,89.68-29.47,131.27-51.56,26.4-14.03,61.65-37.93,76.86-64.21,6.22-10.75,11.73-29.33-.21-37.85-23.4-16.68-73.62-16.85-101.37-14.76-57.41,4.32-115.62,20.96-168.07,44.04-35.36,15.56-68.45,34.97-99.46,57.91-2.53.57-13.39-10.84-15.12-13.26-2.51-3.51-3.09-4.51-.28-8.36,6.82-9.32,28.99-21.79,39.51-27.67,82.33-45.96,192.26-72.38,286.6-65.63,24.57,1.76,47.13,7.63,65.04,25.17,33.93,33.22,8.31,68.33-20.16,93.07-19.47,16.92-45.21,28.44-68.79,38.69-43.93,19.1-89.74,34.09-136.61,44.31-12.11,15.49-21.92,33.21-31.78,50.27-6.51,11.26-12.98,22.63-19.2,34.06-10.34,19.02-20.9,38.23-27.76,58.84-.79.55-3.67-1.97-4.33-2.61-3.26-3.12-9.61-10.89-10.78-15.12-2.66-9.57,5.74-26.23,9.92-35.2,14.3-30.72,31.14-60.29,47.14-90.12.51-1.09-.06-1.69-.65-2.52-2.62-3.68-7.79-6.65-10.56-10.31h18.48Z"/>
  </g>
</svg>
